{
  "accessors": [
    {
      "bufferView": 2,
      "componentType": 5126,
      "count": 4429,
      "max": [
        90.191299438476562,
        253.59622192382812,
        47.140625
      ],
      "min": [
        -90.191299438476562,
        -0.12425599992275238,
        -117.89106750488281
      ],
      "type": "VEC3"
    },
    {
      "bufferView": 2,
      "byteOffset": 53148,
      "componentType": 5126,
      "count": 4429,
      "max": [
        0.99994379281997681,
        0.9999813437461853,
        0.99968749284744263
      ],
      "min": [
        -0.99992883205413818,
        -1,
        -0.99992907047271729
      ],
      "type": "VEC3"
    },
    {
      "bufferView": 3,
      "componentType": 5126,
      "count": 4429,
      "max": [
        1,
        0.99978166818618774,
        0.99968081712722778,
        1
      ],
      "min": [
        -0.99901843070983887,
        -0.99961793422698975,
        -0.99999916553497314,
        -1
      ],
      "type": "VEC4"
    },
    {
      "bufferView": 1,
      "componentType": 5126,
      "count": 4429,
      "max": [
        0.9986799955368042,
        0.99629098176956177
      ],
      "min": [
        0.00036299999919719994,
        0.00084400002378970385
      ],
      "type": "VEC2"
    },
    {
      "bufferView": 0,
      "componentType": 5125,
      "count": 19779,
      "max": [
        4428
      ],
      "min": [
        0
      ],
      "type": "SCALAR"
    },
    {
      "bufferView": 2,
      "byteOffset": 106296,
      "componentType": 5126,
      "count": 325,
      "max": [
        128.02743530273438,
        176.85612487792969,
        -19.224563598632812
      ],
      "min": [
        -88.673103332519531,
        19.890829086303711,
        -48.297874450683594
      ],
      "type": "VEC3"
    },
    {
      "bufferView": 2,
      "byteOffset": 110196,
      "componentType": 5126,
      "count": 325,
      "max": [
        0.99549961090087891,
        0.99246871471405029,
        0.99927937984466553
      ],
      "min": [
        -0.98505496978759766,
        -0.95946872234344482,
        -0.99906235933303833
      ],
      "type": "VEC3"
    },
    {
      "bufferView": 3,
      "byteOffset": 70864,
      "componentType": 5126,
      "count": 325,
      "max": [
        0.98542177677154541,
        0.996407151222229,
        0.9995923638343811,
        1
      ],
      "min": [
        -0.99573731422424316,
        -0.99663126468658447,
        -0.99954342842102051,
        -1
      ],
      "type": "VEC4"
    },
    {
      "bufferView": 1,
      "byteOffset": 35432,
      "componentType": 5126,
      "count": 325,
      "max": [
        0.99269199371337891,
        0.99851399660110474
      ],
      "min": [
        0.00094200001331046224,
        0.0014410000294446945
      ],
      "type": "VEC2"
    },
    {
      "bufferView": 0,
      "byteOffset": 79116,
      "componentType": 5125,
      "count": 1338,
      "max": [
        324
      ],
      "min": [
        0
      ],
      "type": "SCALAR"
    }
  ],
  "asset": {
    "extras": {
      "author": "Richard.Yu (https://sketchfab.com/Richard.Yu)",
      "license": "CC-BY-4.0 (http://creativecommons.org/licenses/by/4.0/)",
      "source": "https://sketchfab.com/models/bcfd53f247cb46e8aa79337bbe590a50",
      "title": "Knight"
    },
    "generator": "Sketchfab-3.19.5",
    "version": "2.0"
  },
  "bufferViews": [
    {
      "buffer": 0,
      "byteLength": 84468,
      "byteOffset": 0,
      "name": "floatBufferViews",
      "target": 34963
    },
    {
      "buffer": 0,
      "byteLength": 38032,
      "byteOffset": 84468,
      "byteStride": 8,
      "name": "floatBufferViews",
      "target": 34962
    },
    {
      "buffer": 0,
      "byteLength": 114096,
      "byteOffset": 122500,
      "byteStride": 12,
      "name": "floatBufferViews",
      "target": 34962
    },
    {
      "buffer": 0,
      "byteLength": 76064,
      "byteOffset": 236596,
      "byteStride": 16,
      "name": "floatBufferViews",
      "target": 34962
    }
  ],
  "buffers": [
    {
      "byteLength": 312660,
      "uri": "scene.bin"
    }
  ],
  "extensionsRequired": [
    "KHR_materials_pbrSpecularGlossiness"
  ],
  "extensionsUsed": [
    "KHR_materials_pbrSpecularGlossiness"
  ],
  "images": [
    {
      "uri": "textures/lambert1_diffuse.png"
    },
    {
      "uri": "textures/lambert1_specularGlossiness.png"
    },
    {
      "uri": "textures/lambert1_normal.png"
    },
    {
      "uri": "textures/blinn1_diffuse.png"
    },
    {
      "uri": "textures/blinn1_specularGlossiness.png"
    },
    {
      "uri": "textures/blinn1_normal.png"
    }
  ],
  "materials": [
    {
      "doubleSided": true,
      "emissiveFactor": [
        0,
        0,
        0
      ],
      "extensions": {
        "KHR_materials_pbrSpecularGlossiness": {
          "diffuseFactor": [
            1,
            1,
            1,
            1
          ],
          "diffuseTexture": {
            "index": 0,
            "texCoord": 0
          },
          "glossinessFactor": 1,
          "specularFactor": [
            0,
            0,
            0
          ],
          "specularGlossinessTexture": {
            "index": 1,
            "texCoord": 0
          }
        }
      },
      "name": "lambert1",
      "normalTexture": {
        "index": 2,
        "scale": 1,
        "texCoord": 0
      }
    },
    {
      "doubleSided": true,
      "emissiveFactor": [
        0,
        0,
        0
      ],
      "extensions": {
        "KHR_materials_pbrSpecularGlossiness": {
          "diffuseFactor": [
            1,
            1,
            1,
            1
          ],
          "diffuseTexture": {
            "index": 3,
            "texCoord": 0
          },
          "glossinessFactor": 1,
          "specularFactor": [
            0.34317835369999999,
            0.34317835369999999,
            0.34317835369999999
          ],
          "specularGlossinessTexture": {
            "index": 4,
            "texCoord": 0
          }
        }
      },
      "name": "blinn1",
      "normalTexture": {
        "index": 5,
        "scale": 1,
        "texCoord": 0
      }
    }
  ],
  "meshes": [
    {
      "name": "polySurface1_lambert1_0",
      "primitives": [
        {
          "attributes": {
            "NORMAL": 1,
            "POSITION": 0,
            "TANGENT": 2,
            "TEXCOORD_0": 3
          },
          "indices": 4,
          "material": 0,
          "mode": 4
        }
      ]
    },
    {
      "name": "polySurface220_blinn1_0",
      "primitives": [
        {
          "attributes": {
            "NORMAL": 6,
            "POSITION": 5,
            "TANGENT": 7,
            "TEXCOORD_0": 8
          },
          "indices": 9,
          "material": 1,
          "mode": 4
        }
      ]
    }
  ],
  "nodes": [
    {
      "children": [
        1
      ],
      "name": "RootNode (gltf orientation matrix)",
      "rotation": [
        -0.70710678118654746,
        -0,
        -0,
        0.70710678118654757
      ]
    },
    {
      "children": [
        2
      ],
      "name": "RootNode (model correction matrix)"
    },
    {
      "children": [
        3
      ],
      "matrix": [
        1,
        0,
        0,
        0,
        0,
        0,
        1,
        0,
        0,
        -1,
        0,
        0,
        0,
        0,
        0,
        1
      ],
      "name": "245131f460244608a5b90123f8946b51.fbx"
    },
    {
      "children": [
        4,
        6
      ],
      "name": "RootNode"
    },
    {
      "children": [
        5
      ],
      "name": "polySurface1"
    },
    {
      "mesh": 0,
      "name": "polySurface1_lambert1_0"
    },
    {
      "children": [
        7
      ],
      "name": "polySurface220"
    },
    {
      "mesh": 1,
      "name": "polySurface220_blinn1_0"
    }
  ],
  "samplers": [
    {
      "magFilter": 9729,
      "minFilter": 9987,
      "wrapS": 10497,
      "wrapT": 10497
    }
  ],
  "scene": 0,
  "scenes": [
    {
      "name": "OSG_Scene",
      "nodes": [
        0
      ]
    }
  ],
  "textures": [
    {
      "sampler": 0,
      "source": 0
    },
    {
      "sampler": 0,
      "source": 1
    },
    {
      "sampler": 0,
      "source": 2
    },
    {
      "sampler": 0,
      "source": 3
    },
    {
      "sampler": 0,
      "source": 4
    },
    {
      "sampler": 0,
      "source": 5
    }
  ]
}

